<svg xmlns="http://www.w3.org/2000/svg" width="500" height="250" viewBox="0 0 500 250">
  <path fill="#313F46" d="m321.018 187.516 76.434-18.69 97.114 13.46-79.735 20.077-93.813-14.847Z"/>
  <path fill="#313F46" d="m321.018 187.516 76.411-18.775s97.184 13.369 97.184 13.362l.977.13-.977.252-79.782 19.985s-93.783-14.962-93.813-14.954Zm0 0s93.959 14.755 93.79 14.747l79.712-20.16v.375s-97.191-13.576-97.045-13.569l-76.457 18.607Z"/>
  <path fill="#C7C7C7" d="M411.79 197.156c4.703-1.44 9.552-2.779 14.416-4.104a693.32 693.32 0 0 1 14.762-3.829c4.957-1.232 10.005-2.48 15.07-3.652l7.635-1.753c2.601-.551 5.149-1.133 7.781-1.654-2.309.727-4.756 1.394-7.135 2.098l-7.273 1.998c-4.849 1.34-9.805 2.604-14.762 3.829-4.956 1.225-10.006 2.481-15.07 3.652-5.064 1.172-10.174 2.343-15.424 3.415Zm12.63-7.603c5.388-1.837 11.207-3.415 17.102-4.916 5.896-1.5 11.976-2.917 18.456-4.02-5.387 1.845-11.198 3.415-17.101 4.916-5.904 1.501-12.015 2.887-18.457 4.02Zm-35.657 4.564c4.702-1.44 9.551-2.78 14.415-4.105a694.946 694.946 0 0 1 14.763-3.828c4.956-1.233 10.005-2.481 15.061-3.653l7.643-1.745c2.593-.551 5.149-1.133 7.781-1.662-2.309.727-4.756 1.401-7.135 2.098l-7.273 2.007c-4.856 1.332-9.805 2.595-14.762 3.828-4.956 1.232-10.005 2.481-15.07 3.652-5.064 1.171-10.174 2.336-15.423 3.408Zm-2.94-3.684c7.996-2.496 16.393-4.716 24.89-6.891s17.163-4.196 26.168-5.98c-7.997 2.496-16.394 4.716-24.883 6.891s-17.14 4.197-26.175 5.98Zm9.99-6.929c4.41-1.593 9.235-2.917 14.138-4.173 4.903-1.256 10.005-2.389 15.447-3.277-4.41 1.6-9.236 2.917-14.131 4.173-4.895 1.255-10.006 2.389-15.454 3.277Z"/>
  <path fill="#516874" d="m5.16 109.026 106.058-19.97 102.341 29.748-105.527 20.688L5.16 109.026Z"/>
  <path fill="#313F46" d="m5.16 109.025 106.065-20.068s102.365 29.67 102.365 29.663l.769.222-.769.153-105.558 20.612c-.039 0-102.842-30.559-102.873-30.559v-.023Zm0 0 102.902 30.368c-.254.053 105.528-20.796 105.443-20.773v.367l-102.31-29.861c.2-.046-106.066 19.907-106.036 19.907v-.008Z"/>
  <path fill="#313F46" d="M106.546 133.428c6.927-1.593 13.907-3.063 20.919-4.541 7.012-1.477 14.077-2.886 21.15-4.28a1392.516 1392.516 0 0 1 21.343-4.05l10.736-1.945c3.61-.613 7.189-1.255 10.829-1.837-3.448.803-6.926 1.531-10.421 2.296l-10.513 2.244c-7.004 1.486-14.077 2.887-21.142 4.28a1380.534 1380.534 0 0 1-21.343 4.051c-7.158 1.293-14.308 2.603-21.558 3.782Zm27.184-10.589c7.559-1.938 15.393-3.576 23.251-5.138 7.858-1.562 15.863-2.986 24.083-4.143-7.558 1.937-15.393 3.576-23.251 5.138-7.859 1.562-15.863 2.987-24.083 4.143Zm-37.644 2.113c6.042-1.424 12.168-2.733 18.31-4.036 6.142-1.301 12.315-2.533 18.533-3.766a1027.829 1027.829 0 0 1 18.734-3.538l9.428-1.684c3.179-.528 6.319-1.087 9.521-1.585-3.009.719-6.073 1.378-9.113 2.067l-9.197 1.968c-6.157 1.309-12.315 2.535-18.533 3.767a1092.443 1092.443 0 0 1-18.726 3.538c-6.288 1.133-12.569 2.258-18.957 3.269Zm-4.934-4.296c5.58-1.332 11.245-2.557 16.933-3.766 5.71-1.207 11.429-2.371 17.156-3.492a944.223 944.223 0 0 1 17.348-3.27l8.736-1.531c2.947-.483 5.864-.996 8.835-1.447-2.778.681-5.619 1.286-8.42 1.937l-8.513 1.83c-5.672 1.217-11.413 2.358-17.155 3.492a1030.51 1030.51 0 0 1-17.348 3.269 1012.81 1012.81 0 0 1-17.572 2.978Zm-26.422-.084c6.928-1.593 13.908-3.063 20.92-4.548 7.011-1.486 14.076-2.879 21.15-4.28a1403.74 1403.74 0 0 1 21.335-4.051l10.774-1.944c3.611-.606 7.189-1.256 10.83-1.838-3.448.811-6.927 1.532-10.422 2.297l-10.505 2.221c-7.004 1.477-14.077 2.879-21.143 4.28a1379.244 1379.244 0 0 1-21.342 4.05c-7.158 1.302-14.346 2.627-21.597 3.813Zm-.877-5.092c6.111-1.439 12.315-2.764 18.526-4.08 6.211-1.318 12.484-2.566 18.756-3.829a908.818 908.818 0 0 1 18.942-3.583l9.543-1.708c3.21-.536 6.396-1.103 9.629-1.601-3.079.728-6.157 1.387-9.236 2.091l-9.305 1.983c-6.203 1.325-12.476 2.565-18.749 3.828a902.478 902.478 0 0 1-18.949 3.584c-6.357 1.141-12.699 2.29-19.157 3.315Zm-20.034-1.34c6.927-1.592 13.908-3.063 20.927-4.54 7.047-1.49 14.108-2.917 21.18-4.28 7.105-1.363 14.185-2.756 21.344-4.051l10.736-1.945c3.61-.612 7.196-1.255 10.83-1.837-3.449.804-6.928 1.531-10.414 2.297l-10.506 2.228c-7.004 1.478-14.077 2.879-21.15 4.273a1404.966 1404.966 0 0 1-21.343 4.05c-7.157 1.294-14.346 2.627-21.604 3.805Zm24.298-10.023c8.043-2.036 16.34-3.766 24.698-5.42 8.359-1.654 16.825-3.178 25.529-4.426-8.042 2.037-16.332 3.76-24.698 5.42-8.366 1.663-16.824 3.163-25.529 4.426Z"/>
  <path fill="#516874" d="m160.568 210.969 134.781-25.375 130.041 37.802-134.097 26.286-130.725-38.713Z"/>
  <path fill="#313F46" d="m160.583 210.969 134.766-25.474s130.072 37.725 130.072 37.717l.769.222-.769.153-134.128 26.194c-.038.008-130.71-38.812-130.71-38.812Zm0 0L291.34 249.59c-.239 0 134.089-26.393 134.027-26.378v.368l-130.048-37.894c.2-.061-134.782 25.321-134.751 25.268l.015.015Z"/>
  <path fill="#313F46" d="M289.4 241.979c8.782-2.021 17.702-3.912 26.592-5.773 8.889-1.861 17.887-3.66 26.869-5.437a1794.196 1794.196 0 0 1 27.122-5.152l13.646-2.466c4.618-.766 9.136-1.6 13.761-2.335-4.379 1.026-8.827 1.968-13.237 2.956l-13.354 2.817c-8.898 1.883-17.887 3.66-26.869 5.436a1699.707 1699.707 0 0 1-27.122 5.146c-9.097 1.646-18.187 3.308-27.408 4.808Zm34.549-13.46c9.606-2.458 19.535-4.541 29.54-6.524 10.005-1.983 20.165-3.828 30.617-5.268-9.605 2.466-19.541 4.548-29.547 6.532-10.006 1.983-20.165 3.789-30.61 5.26Zm-47.833 2.687c7.697-1.807 15.462-3.476 23.266-5.122 7.804-1.647 15.679-3.223 23.552-4.786a1382.68 1382.68 0 0 1 23.797-4.502l11.992-2.144c4.033-.666 8.027-1.378 12.099-2.006-3.848.919-7.696 1.754-11.545 2.626l-11.683 2.497c-7.797 1.661-15.678 3.223-23.552 4.785a1307.307 1307.307 0 0 1-23.805 4.494c-7.989 1.432-16.009 2.91-24.121 4.158Zm-6.242-5.459c7.088-1.692 14.293-3.247 21.55-4.778 7.257-1.527 14.522-3.01 21.797-4.449 7.334-1.457 14.682-2.84 22.043-4.149l11.114-1.976c3.74-.605 7.442-1.264 11.221-1.838-3.533.866-7.134 1.639-10.706 2.458l-10.813 2.297c-7.204 1.532-14.5 2.994-21.797 4.441a1114.792 1114.792 0 0 1-22.043 4.15c-7.42 1.317-14.869 2.695-22.366 3.844Zm-33.611-.107c8.782-2.022 17.702-3.913 26.592-5.773 8.89-1.862 17.886-3.661 26.868-5.437a1742.85 1742.85 0 0 1 27.1-5.145l13.646-2.466c4.618-.766 9.136-1.6 13.761-2.297-4.379 1.026-8.828 1.968-13.238 2.956l-13.353 2.817c-8.897 1.884-17.887 3.66-26.869 5.437a1710.93 1710.93 0 0 1-27.122 5.145c-9.098 1.646-18.164 3.262-27.385 4.763Zm-1.108-6.47c7.766-1.822 15.647-3.515 23.544-5.177a2055.986 2055.986 0 0 1 23.859-4.846 1337.21 1337.21 0 0 1 24.075-4.549l12.091-2.204c4.087-.675 8.127-1.394 12.245-2.037-3.848.926-7.812 1.768-11.722 2.657l-11.822 2.527c-7.889 1.676-15.862 3.261-23.859 4.839-7.996 1.577-15.993 3.063-24.074 4.548-8.082 1.485-16.133 2.94-24.337 4.242Zm-25.461-1.701c8.782-2.02 17.703-3.912 26.593-5.773 8.889-1.86 17.886-3.66 26.868-5.436a1796.716 1796.716 0 0 1 27.123-5.153l13.645-2.466c4.618-.765 9.136-1.599 13.754-2.335-4.372 1.026-8.82 1.968-13.23 2.956l-13.354 2.818c-8.897 1.883-17.886 3.659-26.868 5.436a1708.908 1708.908 0 0 1-27.123 5.145c-9.097 1.647-18.187 3.308-27.408 4.808Zm30.88-12.74c10.221-2.581 20.78-4.778 31.378-6.891 10.599-2.114 21.389-4.043 32.449-5.629-10.221 2.589-20.781 4.787-31.387 6.892-10.606 2.105-21.38 4.058-32.44 5.628Z"/>
  <path fill="#37474F" d="m493.58 146.877-249.537 68.591v-49.44L493.58 97.437c13.222 24.257 0 49.44 0 49.44Z"/>
  <path fill="#455A64" d="m.54 181.172 243.503 34.296v-12.535L22.806 176.012.54 177.344v3.828Z"/>
  <path fill="#455A64" d="M244.051 166.257c9.097 21.784 0 49.211 0 49.211L12.285 179.051v-42.732l231.766 29.938Z"/>
  <path fill="#FFFFFF" d="M238.317 165.522c8.858 21.7.731 45.068.731 45.068L12.285 178.876v-42.572l226.032 29.218Z"/>
  <path fill="#313F46" d="M238.316 165.522c.3.842 1.17 3.216 1.471 4.051a63.375 63.375 0 0 1 2.708 18.376 76.434 76.434 0 0 1-3.332 22.664c.108.337-226.855-31.477-226.932-31.393l-.33-.046v-43.261l.384.053 113.062 14.725 112.923 14.816.046.015Zm0 0c-55.599-7.435-171.948-21.155-225.693-29.203l.039 42.572-.331-.383c0 .084 227.232 31.845 226.586 32.044a72.62 72.62 0 0 0 2.571-11.156c1.716-11.309 1.054-23.177-3.18-33.874h.008Z"/>
  <path fill="#313F46" d="M122.007 154.756c37.836 4.594 80.213 10.261 117.918 15.828-37.836-4.595-80.213-10.269-117.918-15.828Zm-109.723-2.863c32.434 3.829 68.415 8.683 100.733 13.514-32.456-3.828-68.422-8.668-100.733-13.514Zm5.404 4.204c55.114 6.891 116.864 15.175 171.833 23.054-55.107-6.891-116.857-15.176-171.833-23.054Zm29.793 14.464c57.17 7.036 121.228 15.489 178.259 23.513-57.162-7.029-121.219-15.49-178.26-23.513Zm38.429 9.003c49.858 6.203 105.773 13.691 155.516 20.873-49.881-6.186-105.766-13.69-155.516-20.873Zm-44.81-.084c63.882 8.101 135.459 17.703 199.18 26.73-63.881-8.093-135.46-17.702-199.18-26.73Z"/>
  <path fill="#455A64" d="m244.051 166.257 249.529-68.82-252.154-11.362L.54 130.514v4.288l243.511 31.454v.001Z"/>
  <path fill="#37474F" d="M250.447 158.692a1454.822 1454.822 0 0 1 94.513-25.046c-30.948 9.342-62.743 17.757-94.513 25.046Zm-59.864-4.38c8.62.444 17.525 1.439 26.083 2.473 8.559 1.034 17.395 2.298 25.784 4.02-8.62-.436-17.525-1.439-26.076-2.473-8.551-1.034-17.394-2.335-25.791-4.02ZM7.236 131.35a4901.153 4901.153 0 0 1 175.904 22.02A4841.865 4841.865 0 0 1 7.236 131.35Z"/>
  <path fill="#455A64" d="M413.613 125.324a1344.87 1344.87 0 0 1 73.94-20.804 1340.214 1340.214 0 0 1-73.94 20.804Z"/>
  <path fill="#56AAFF" d="M145.941 99.573H85V72.17L145.941 0h29.164v73.725h15.162v25.848h-15.162V122h-29.164V99.573Zm0-25.848v-37.75l-32.198 37.75h32.198Z"/>
  <path fill="#37474F" d="m145.941 35.974-32.198 37.75h7.412l24.786-29.06v-8.69ZM175.105 0v73.725h4V4l-4-4Zm19.162 103.573V77.725l-4-4v25.848h-15.162V122h-29.164l4 4h29.164v-22.427h15.162Zm-48.326-4H85l4 4h56.941v-4Z"/>
  <path fill="#56AAFF" d="M202.004 60.563c0-22.439 4.053-38.144 12.159-47.115C222.27 4.476 234.623-.007 251.223 0c7.969 0 14.515.982 19.639 2.945a36.273 36.273 0 0 1 12.524 7.646 40.842 40.842 0 0 1 7.637 9.904 51.278 51.278 0 0 1 4.483 12.113 112.806 112.806 0 0 1 3.311 27.484c0 21.412-3.636 37.08-10.908 47.008-7.272 9.927-19.796 14.893-37.572 14.9-9.973 0-18.03-1.584-24.172-4.751a39.097 39.097 0 0 1-15.106-13.928c-2.857-4.346-5.081-10.29-6.671-17.836a121.604 121.604 0 0 1-2.384-24.922Zm32.655.079c0 15.05 1.33 25.315 3.991 30.792 1.456 2.998 3.274 5.18 5.453 6.545 1.801 1.128 3.85 1.698 6.145 1.71a12.203 12.203 0 0 0 4.698-.884 12.167 12.167 0 0 0 3.993-2.62c2.457-2.337 4.263-6.027 5.419-11.073 1.157-5.045 1.735-12.897 1.735-23.557 0-15.666-1.334-26.199-4.001-31.597a19.755 19.755 0 0 0-1.305-2.27c-2.606-3.884-6.171-5.824-10.697-5.819-5.439 0-9.381 2.752-11.824 8.256-2.444 5.503-3.646 15.675-3.607 30.517Z"/>
  <path fill="#37474F" d="M295.023 24.495a40.84 40.84 0 0 0-7.637-9.904 35.62 35.62 0 0 0-1.247-1.114 40.842 40.842 0 0 1 4.884 7.018 51.278 51.278 0 0 1 4.483 12.113 112.806 112.806 0 0 1 3.311 27.484c0 21.412-3.636 37.08-10.908 47.008-7.272 9.927-19.796 14.893-37.572 14.9-9.973 0-18.03-1.584-24.172-4.751a39.206 39.206 0 0 1-7.558-5.128 39.154 39.154 0 0 0 11.558 9.128c6.142 3.167 14.2 4.751 24.172 4.751 17.776-.007 30.3-4.973 37.572-14.9 7.272-9.927 10.908-25.596 10.908-47.008a112.806 112.806 0 0 0-3.311-27.484 51.278 51.278 0 0 0-4.483-12.113Z"/>
  <path fill="#37474F" d="M242.65 95.434c-2.661-5.477-3.991-15.742-3.991-30.792-.039-14.842 1.163-25.014 3.607-30.517 2.443-5.504 6.385-8.256 11.824-8.256 2.533-.003 4.765.604 6.697 1.82-2.606-3.885-6.171-5.825-10.697-5.82-5.439 0-9.381 2.752-11.824 8.256-2.444 5.503-3.646 15.675-3.607 30.517 0 15.05 1.33 25.315 3.991 30.792 1.456 2.998 3.274 5.18 5.453 6.545a20.873 20.873 0 0 1-1.453-2.545Z"/>
  <path fill="#56AAFF" d="M370.674 99.573h-60.941V72.17L370.674 0h29.163v73.725H415v25.848h-15.163V122h-29.163V99.573Zm0-25.848v-37.75l-32.198 37.75h32.198Z"/>
  <path fill="#37474F" d="m370.674 35.974-32.198 37.75h7.411l24.787-29.06v-8.69ZM399.837 0v73.725h4V4l-4-4ZM419 103.573V77.725l-4-4v25.848h-15.163V122h-29.163l4 4h29.163v-22.427H419Zm-48.326-4h-60.941l4 4h56.941v-4Z"/>
</svg>