<svg xmlns="http://www.w3.org/2000/svg" width="500" height="250" viewBox="0 0 500 250">
  <path fill="#313F46" d="m321.018 187.516 76.434-18.69 97.114 13.46-79.735 20.077-93.813-14.847Z"/>
  <path fill="#313F46" d="m321.018 187.516 76.411-18.775s97.184 13.369 97.184 13.362l.977.13-.977.252-79.782 19.985s-93.783-14.962-93.813-14.954Zm0 0s93.959 14.755 93.79 14.747l79.712-20.16v.375s-97.191-13.576-97.045-13.569l-76.457 18.607Z"/>
  <path fill="#C7C7C7" d="M411.79 197.156c4.703-1.44 9.552-2.779 14.416-4.104a693.32 693.32 0 0 1 14.762-3.829c4.957-1.232 10.005-2.48 15.07-3.652l7.635-1.753c2.601-.551 5.149-1.133 7.781-1.654-2.309.727-4.756 1.394-7.135 2.098l-7.273 1.998c-4.849 1.34-9.805 2.604-14.762 3.829-4.956 1.225-10.006 2.481-15.07 3.652-5.064 1.172-10.174 2.343-15.424 3.415Zm12.63-7.603c5.388-1.837 11.207-3.415 17.102-4.916 5.896-1.5 11.976-2.917 18.456-4.02-5.387 1.845-11.198 3.415-17.101 4.916-5.904 1.501-12.015 2.887-18.457 4.02Zm-35.657 4.564c4.702-1.44 9.551-2.78 14.415-4.105a694.946 694.946 0 0 1 14.763-3.828c4.956-1.233 10.005-2.481 15.061-3.653l7.643-1.745c2.593-.551 5.149-1.133 7.781-1.662-2.309.727-4.756 1.401-7.135 2.098l-7.273 2.007c-4.856 1.332-9.805 2.595-14.762 3.828-4.956 1.232-10.005 2.481-15.07 3.652-5.064 1.171-10.174 2.336-15.423 3.408Zm-2.94-3.684c7.996-2.496 16.393-4.716 24.89-6.891s17.163-4.196 26.168-5.98c-7.997 2.496-16.394 4.716-24.883 6.891s-17.14 4.197-26.175 5.98Zm9.99-6.929c4.41-1.593 9.235-2.917 14.138-4.173 4.903-1.256 10.005-2.389 15.447-3.277-4.41 1.6-9.236 2.917-14.131 4.173-4.895 1.255-10.006 2.389-15.454 3.277Z"/>
  <path fill="#516874" d="m5.16 109.026 106.058-19.97 102.341 29.748-105.527 20.688L5.159 109.026Z"/>
  <path fill="#313F46" d="m5.16 109.025 106.065-20.068s102.365 29.67 102.365 29.663l.769.222-.769.153-105.558 20.612c-.039 0-102.842-30.559-102.873-30.559v-.023Zm0 0 102.902 30.368c-.254.053 105.528-20.796 105.443-20.773v.367l-102.31-29.861c.2-.046-106.066 19.907-106.036 19.907v-.008Z"/>
  <path fill="#313F46" d="M106.546 133.428c6.927-1.593 13.907-3.063 20.919-4.541 7.012-1.477 14.077-2.886 21.15-4.28a1392.516 1392.516 0 0 1 21.343-4.05l10.736-1.945c3.61-.613 7.189-1.255 10.829-1.837-3.448.803-6.926 1.531-10.421 2.296l-10.513 2.244c-7.004 1.486-14.077 2.887-21.142 4.28a1380.534 1380.534 0 0 1-21.343 4.051c-7.158 1.293-14.308 2.603-21.558 3.782Zm27.184-10.589c7.559-1.938 15.393-3.576 23.251-5.138 7.858-1.562 15.863-2.986 24.083-4.143-7.558 1.937-15.393 3.576-23.251 5.138-7.859 1.562-15.863 2.987-24.083 4.143Zm-37.644 2.113c6.042-1.424 12.168-2.733 18.31-4.036 6.142-1.301 12.315-2.533 18.533-3.766a1026.213 1026.213 0 0 1 18.734-3.538l9.428-1.684c3.179-.528 6.319-1.087 9.521-1.585-3.009.719-6.073 1.378-9.113 2.067l-9.197 1.968c-6.157 1.309-12.315 2.535-18.533 3.767a1092.443 1092.443 0 0 1-18.726 3.538c-6.288 1.133-12.569 2.258-18.957 3.269Zm-4.934-4.296c5.58-1.332 11.245-2.557 16.933-3.766a1171.69 1171.69 0 0 1 17.156-3.492 944.223 944.223 0 0 1 17.348-3.27l8.736-1.531c2.947-.483 5.864-.996 8.835-1.447-2.778.681-5.619 1.286-8.42 1.937l-8.513 1.83c-5.672 1.217-11.413 2.358-17.155 3.492a1030.51 1030.51 0 0 1-17.348 3.269 1012.938 1012.938 0 0 1-17.572 2.978Zm-26.422-.084c6.928-1.593 13.908-3.063 20.92-4.548 7.011-1.486 14.076-2.879 21.15-4.28a1403.74 1403.74 0 0 1 21.335-4.051l10.774-1.944c3.611-.606 7.189-1.256 10.83-1.838-3.448.811-6.927 1.532-10.422 2.297l-10.505 2.221c-7.004 1.477-14.077 2.879-21.143 4.28a1379.007 1379.007 0 0 1-21.342 4.05c-7.158 1.302-14.346 2.627-21.597 3.813Zm-.877-5.092c6.111-1.439 12.315-2.764 18.526-4.08 6.211-1.318 12.484-2.566 18.756-3.829a906.53 906.53 0 0 1 18.942-3.583l9.543-1.708c3.21-.536 6.396-1.103 9.629-1.601-3.079.728-6.157 1.387-9.236 2.091l-9.305 1.983c-6.203 1.325-12.476 2.565-18.749 3.828a907.172 907.172 0 0 1-18.949 3.584c-6.357 1.141-12.699 2.29-19.157 3.315Zm-20.034-1.34c6.927-1.592 13.908-3.063 20.927-4.54 7.047-1.49 14.108-2.917 21.18-4.28 7.105-1.363 14.185-2.756 21.344-4.051l10.736-1.945c3.61-.612 7.196-1.255 10.83-1.837-3.449.804-6.928 1.531-10.414 2.297l-10.506 2.228c-7.004 1.478-14.077 2.879-21.15 4.273a1404.226 1404.226 0 0 1-21.343 4.05c-7.157 1.294-14.346 2.627-21.604 3.805Zm24.298-10.023c8.043-2.036 16.34-3.766 24.698-5.42 8.359-1.654 16.825-3.178 25.529-4.426-8.042 2.037-16.332 3.76-24.698 5.42-8.366 1.663-16.824 3.163-25.529 4.426Z"/>
  <path fill="#516874" d="m160.568 210.969 134.781-25.375 130.041 37.802-134.097 26.286-130.725-38.713Z"/>
  <path fill="#313F46" d="m160.583 210.969 134.766-25.474s130.072 37.725 130.072 37.717l.769.222-.769.153-134.128 26.194c-.038.008-130.71-38.812-130.71-38.812Zm0 0L291.34 249.59c-.239 0 134.089-26.393 134.027-26.378v.368l-130.048-37.894c.2-.061-134.782 25.321-134.751 25.268l.015.015Z"/>
  <path fill="#313F46" d="M289.4 241.979c8.782-2.021 17.702-3.912 26.592-5.773 8.889-1.861 17.887-3.66 26.869-5.437a1794.196 1794.196 0 0 1 27.122-5.152l13.646-2.466c4.618-.766 9.136-1.6 13.761-2.335-4.379 1.026-8.827 1.968-13.237 2.956l-13.354 2.817c-8.898 1.883-17.887 3.66-26.869 5.436a1699.707 1699.707 0 0 1-27.122 5.146c-9.097 1.646-18.187 3.308-27.408 4.808Zm34.549-13.46c9.606-2.458 19.535-4.541 29.54-6.524 10.005-1.983 20.165-3.828 30.617-5.268-9.605 2.466-19.541 4.548-29.547 6.532-10.006 1.983-20.165 3.789-30.61 5.26Zm-47.833 2.687c7.697-1.807 15.462-3.476 23.266-5.122 7.804-1.647 15.679-3.223 23.552-4.786a1382.68 1382.68 0 0 1 23.797-4.502l11.992-2.144c4.033-.666 8.027-1.378 12.099-2.006-3.848.919-7.696 1.754-11.545 2.626l-11.683 2.497c-7.797 1.661-15.678 3.223-23.552 4.785a1307.307 1307.307 0 0 1-23.805 4.494c-7.989 1.432-16.009 2.91-24.121 4.158Zm-6.242-5.459c7.088-1.692 14.293-3.247 21.55-4.778 7.257-1.527 14.522-3.01 21.797-4.449a1112.04 1112.04 0 0 1 22.043-4.149l11.114-1.976c3.74-.605 7.442-1.264 11.221-1.838-3.533.866-7.134 1.639-10.706 2.458l-10.813 2.297c-7.204 1.532-14.5 2.994-21.797 4.441a1112.057 1112.057 0 0 1-22.043 4.15c-7.42 1.317-14.869 2.695-22.366 3.844Zm-33.611-.107c8.782-2.022 17.702-3.913 26.592-5.773 8.89-1.862 17.886-3.661 26.868-5.437a1742.85 1742.85 0 0 1 27.1-5.145l13.646-2.466c4.618-.766 9.136-1.6 13.761-2.297-4.379 1.026-8.828 1.968-13.238 2.956l-13.353 2.817c-8.897 1.884-17.887 3.66-26.869 5.437a1710.93 1710.93 0 0 1-27.122 5.145c-9.098 1.646-18.164 3.262-27.385 4.763Zm-1.108-6.47c7.766-1.822 15.647-3.515 23.544-5.177a2054.361 2054.361 0 0 1 23.859-4.846 1337.21 1337.21 0 0 1 24.075-4.549l12.091-2.204c4.087-.675 8.127-1.394 12.245-2.037-3.848.926-7.812 1.768-11.722 2.657l-11.822 2.527c-7.889 1.676-15.862 3.261-23.859 4.839-7.996 1.577-15.993 3.063-24.074 4.548-8.082 1.485-16.133 2.94-24.337 4.242Zm-25.461-1.701c8.782-2.02 17.703-3.912 26.593-5.773 8.889-1.86 17.886-3.66 26.868-5.436a1796.716 1796.716 0 0 1 27.123-5.153l13.645-2.466c4.618-.765 9.136-1.599 13.754-2.335-4.372 1.026-8.82 1.968-13.23 2.956l-13.354 2.818c-8.897 1.883-17.886 3.659-26.868 5.436a1708.908 1708.908 0 0 1-27.123 5.145c-9.097 1.647-18.187 3.308-27.408 4.808Zm30.88-12.74c10.221-2.581 20.78-4.778 31.378-6.891 10.599-2.114 21.389-4.043 32.449-5.629-10.221 2.589-20.781 4.787-31.387 6.892-10.606 2.105-21.38 4.058-32.44 5.628Z"/>
  <path fill="#37474F" d="m493.58 146.877-249.537 68.591v-49.44L493.58 97.437c13.222 24.257 0 49.44 0 49.44Z"/>
  <path fill="#455A64" d="m.54 181.172 243.503 34.296v-12.535L22.806 176.012.54 177.344v3.828Z"/>
  <path fill="#455A64" d="M244.051 166.257c9.097 21.784 0 49.211 0 49.211L12.285 179.051v-42.732l231.766 29.938Z"/>
  <path fill="#FFFFFF" d="M238.317 165.522c8.858 21.7.731 45.068.731 45.068L12.285 178.876v-42.572l226.032 29.218Z"/>
  <path fill="#313F46" d="M238.316 165.522c.3.842 1.17 3.216 1.471 4.051a63.38 63.38 0 0 1 2.708 18.376 76.448 76.448 0 0 1-3.332 22.664c.108.337-226.855-31.477-226.932-31.393l-.33-.046v-43.261l.384.053 113.062 14.725 112.923 14.816.046.015Zm0 0c-55.599-7.435-171.948-21.155-225.693-29.203l.039 42.572-.331-.383c0 .084 227.232 31.845 226.586 32.044a72.674 72.674 0 0 0 2.571-11.156c1.716-11.309 1.054-23.177-3.18-33.874h.008Z"/>
  <path fill="#313F46" d="M122.007 154.756c37.836 4.594 80.213 10.261 117.918 15.828-37.836-4.595-80.213-10.269-117.918-15.828Zm-109.723-2.863c32.434 3.829 68.415 8.683 100.733 13.514-32.456-3.828-68.422-8.668-100.733-13.514Zm5.404 4.204c55.114 6.891 116.864 15.175 171.833 23.054-55.107-6.891-116.857-15.176-171.833-23.054Zm29.793 14.464c57.17 7.036 121.228 15.489 178.259 23.513-57.162-7.029-121.22-15.49-178.26-23.513Zm38.429 9.003c49.858 6.203 105.773 13.691 155.516 20.873-49.881-6.186-105.766-13.69-155.516-20.873Zm-44.81-.084c63.882 8.101 135.459 17.703 199.18 26.73-63.881-8.093-135.46-17.702-199.18-26.73Z"/>
  <path fill="#455A64" d="m244.051 166.257 249.529-68.82-252.154-11.362L.54 130.514v4.288l243.511 31.454Z"/>
  <path fill="#37474F" d="M250.447 158.692a1454.444 1454.444 0 0 1 94.513-25.046c-30.948 9.342-62.743 17.757-94.513 25.046Zm-59.864-4.38c8.62.444 17.525 1.439 26.083 2.473 8.559 1.034 17.395 2.298 25.784 4.02-8.62-.436-17.525-1.439-26.076-2.473-8.551-1.034-17.394-2.335-25.791-4.02ZM7.236 131.35a4900.57 4900.57 0 0 1 175.904 22.02A4841.302 4841.302 0 0 1 7.236 131.35Z"/>
  <path fill="#455A64" d="M413.613 125.324a1345.008 1345.008 0 0 1 73.94-20.804 1340.103 1340.103 0 0 1-73.94 20.804Z"/>
  <path fill="#56AAFF" d="M289.818 87.613c-3.232.629-16.578 1.34-16.848-1.531-.415-4.318 31.502-34.946 42.955-40.704 10.89-5.482 45.979-17.442 54.645-17.703l.077 27.504c-4.902 1.24-43.963-2.55-52.167 1.784-3.563 1.883-8.282 9.693-17.887 22.098-3.378 4.371-8.866 8.177-10.775 8.552Z"/>
  <path opacity=".3" d="M289.818 87.613c-3.232.629-16.578 1.34-16.848-1.531-.415-4.318 31.502-34.946 42.955-40.704 10.89-5.482 45.979-17.442 54.645-17.703l.077 27.504c-4.902 1.24-43.963-2.55-52.167 1.784-3.563 1.883-8.282 9.693-17.887 22.098-3.378 4.371-8.866 8.177-10.775 8.552Z"/>
  <path fill="#56AAFF" d="M283.192 87.613c-3.241.629-15.647 1.34-15.925-1.531-.407-4.318 31.51-34.946 42.955-40.704 10.89-5.482 51.682-17.442 60.349-17.703l.077 27.504c-4.903 1.24-49.658-2.55-57.863 1.784-3.564 1.883-9.236 9.693-18.825 22.098-3.372 4.371-8.859 8.177-10.768 8.552Z"/>
  <path opacity=".2" d="M283.192 87.613c-3.241.629-15.647 1.34-15.925-1.531-.407-4.318 31.51-34.946 42.955-40.704 10.89-5.482 51.682-17.442 60.349-17.703l.077 27.504c-4.903 1.24-49.658-2.55-57.863 1.784-3.564 1.883-9.236 9.693-18.825 22.098-3.372 4.371-8.859 8.177-10.768 8.552Z"/>
  <path fill="#56AAFF" d="M409.038 124.106c2.786 1.164 13.745 1.754 15.624-.598 2.832-3.559-31.725-52.005-52.029-60.795C353.646 54.56 85.768 2.8 80.242 1.941l-.2 21.5c37.32 5.804 274.127 43.338 288.773 49.686 9.552 4.127 21.72 25.903 30.464 40.949 3.532 6.11 6.527 8.682 9.759 10.03Z"/>
  <path opacity=".2" d="M409.038 124.106c2.786 1.164 13.745 1.754 15.624-.598 2.832-3.559-31.725-52.005-52.029-60.795C353.646 54.56 85.768 2.8 80.242 1.941l-.2 21.5c37.32 5.804 274.127 43.338 288.773 49.686 9.552 4.127 21.72 25.903 30.464 40.949 3.532 6.11 6.527 8.682 9.759 10.03Z"/>
  <path fill="#56AAFF" d="M404.412 124.106c2.786 1.164 13.746 1.754 15.624-.598 2.832-3.559-31.471-53.176-51.766-61.966C349.274 53.387 85.768 2.768 80.242 1.94l-4.826 21.502c37.321 5.803 274.128 43.337 288.774 49.685 9.551 4.127 21.72 25.903 30.463 40.949 3.532 6.11 6.527 8.682 9.759 10.03Z"/>
  <path opacity=".1" d="M404.412 124.106c2.786 1.164 13.746 1.754 15.624-.598 2.832-3.559-31.471-53.176-51.766-61.966C349.274 53.387 85.768 2.768 80.242 1.94l-4.826 21.502c37.321 5.803 274.128 43.337 288.774 49.685 9.551 4.127 21.72 25.903 30.463 40.949 3.532 6.11 6.527 8.682 9.759 10.03Z"/>
  <path opacity=".1" d="m132.124 11.864-20.273 17.343c-16.863-2.68-29.8-4.709-36.42-5.742L80.249 1.94c1.502.23 22.182 4.173 51.875 9.923Zm51.844 28.95-12.592-2.059-11.698-21.531 18.541 3.645 5.749 19.945Zm70.916-4.616-14.239 13.958L228 48.043l10.113-15.245a4587.334 4587.334 0 0 1 16.771 3.4Zm111.645 24.708-4.902 11.402c-2.355-.66-5.904-1.486-10.467-2.443l-3.533-13.897c8.882 2.083 15.439 3.774 18.902 4.938Z"/>
  <path fill="#56AAFF" d="M131.155 135.369c-27.908-1.34-49.143-32.786-47.342-70.09.854-17.803 6.773-34.356 16.655-46.616C110.681 6 123.866-.647 137.719.05c13.854.696 26.338 8.507 35.273 22.097 8.659 13.125 12.954 30.177 12.084 47.993-1.709 35.299-23.459 63.399-49.45 65.184a39.465 39.465 0 0 1-4.471.045ZM107.572 24.345c-8.69 10.758-13.93 25.459-14.7 41.377-1.54 32.313 15.8 59.502 38.705 60.597 22.905 1.095 42.817-24.303 44.394-56.661.77-15.919-3.009-31.04-10.606-42.595-7.319-11.094-17.302-17.488-28.107-18a28.897 28.897 0 0 0-3.456 0c-9.575.726-18.78 6.032-26.23 15.267v.015ZM83.852 70.02c-1.41-27.29 1.662-31.563.415-39.61-.593-3.828-6.011-7.503-6.011-7.503L82.99 3.312s14.754 1.431 18.155 1.485c6.05.084 19.111-4.31 30.486-4.594 0 0-24.729 11.056-32.68 25.153-7.95 14.096-15.1 44.647-15.1 44.647v.016Z"/>
  <path opacity=".1" d="M131.155 135.369c-27.908-1.34-49.143-32.786-47.342-70.09.854-17.803 6.773-34.356 16.655-46.616C110.681 6 123.866-.647 137.719.05c13.854.696 26.338 8.507 35.273 22.097 8.659 13.125 12.954 30.177 12.084 47.993-1.709 35.299-23.459 63.399-49.45 65.184a39.465 39.465 0 0 1-4.471.045ZM107.572 24.345c-8.69 10.758-13.93 25.459-14.7 41.377-1.54 32.313 15.8 59.502 38.705 60.597 22.905 1.095 42.817-24.303 44.394-56.661.77-15.919-3.009-31.04-10.606-42.595-7.319-11.094-17.302-17.488-28.107-18a28.897 28.897 0 0 0-3.456 0c-9.575.726-18.78 6.032-26.23 15.267v.015ZM83.852 70.02c-1.41-27.29 1.662-31.563.415-39.61-.593-3.828-6.011-7.503-6.011-7.503L82.99 3.312s14.754 1.431 18.155 1.485c6.05.084 19.111-4.31 30.486-4.594 0 0-24.729 11.056-32.68 25.153-7.95 14.096-15.1 44.647-15.1 44.647v.016Z"/>
  <path fill="#56AAFF" d="M127.36 135.369c-27.915-1.34-49.15-32.786-47.35-70.09.855-17.803 6.774-34.356 16.656-46.616C106.879 6 120.064-.647 133.917.05c13.854.696 26.338 8.507 35.273 22.097 8.659 13.125 12.954 30.177 12.084 47.993-1.709 35.299-23.459 63.399-49.45 65.184a39.571 39.571 0 0 1-4.464.045ZM103.77 24.345C95.08 35.118 89.87 49.82 89.1 65.738c-1.539 32.312 15.794 59.501 38.698 60.596 22.905 1.096 42.817-24.302 44.394-56.66.77-15.92-3.009-31.041-10.606-42.596-7.311-11.094-17.302-17.487-28.107-18a28.868 28.868 0 0 0-3.456 0c-9.59.711-18.803 6.018-26.253 15.252v.015ZM80.05 70.02c-1.41-27.29 1.662-31.563.415-39.61-.593-3.828-6.011-7.503-6.011-7.503l4.95-21.838s15 2.641 18.394 2.687c6.049.092 18.656-3.269 30.016-3.522 0 0-24.729 11.057-32.68 25.154-7.95 14.095-15.085 44.616-15.085 44.616v.016Z"/>
  <path fill="#A6A6A6" d="M94.195 11.06c-.177 1.356-2.708 2.136-5.656 1.746-2.949-.391-5.18-1.807-4.996-3.155.185-1.347 2.71-2.136 5.658-1.745 2.947.39 5.21 1.799 4.994 3.154Z"/>
  <path fill="#FFFFFF" d="M84.837 9.698c.238-.652 2.801-1.387 5.602-.637l-5.602.637ZM78.248 23.08c5.327 2.971 7.605 7.35 7.004 13.415-.593 10.52-1.785 20.942-1.8 31.463-.074 5.25.266 10.498 1.015 15.696-3.41-12.817-2.394-26.332-1.193-39.386l.77-7.842c.831-5.865-1.031-9.877-5.811-13.346h.015Zm27.816-18.06c7.388-2.098 15.061-3.828 22.789-3.484-7.697.682-15.17 2.397-22.789 3.484Z"/>
  <path fill="#516874" opacity=".1" d="M106.056 24.889c-8.397 10.72-13.43 25.328-14.184 41.163-1.502 32.158 15.277 59.172 37.412 60.267 22.135 1.095 41.385-24.172 42.908-56.316.77-15.827-2.902-30.873-10.244-42.358-7.073-11.041-16.724-17.396-27.176-17.91a26.995 26.995 0 0 0-3.34 0c-9.275.69-18.172 5.958-25.376 15.154Z"/>
  <path fill="#FFFFFF" opacity=".2" d="M148.533 14.054 91.81 72.116c-.054-2.006 0-4.02.07-6.072a82.105 82.105 0 0 1 2.754-17.726l37.713-38.583h2.44a29.353 29.353 0 0 1 13.746 4.32Zm19.765 26.998-66.059 67.618a55.46 55.46 0 0 1-3.295-5.827l66.737-68.315a61.968 61.968 0 0 1 2.617 6.524Zm2.57 40.397a77.592 77.592 0 0 1-3.525 12.81l-30.747 31.47a28.06 28.06 0 0 1-9.383.406l43.655-44.686Zm.124-29.991-62.996 64.478a15.797 15.797 0 0 1-.863-.911l63.566-65.083c.116.506.201 1.018.293 1.516Z"/>
  <path fill="#56AAFF" d="m218.11 71.81 6.157-6.654c-9.897-9.112-33.195-21.838-50.651-4.954l6.342 6.493c15.64-15.154 37.236 4.287 38.152 5.115Z"/>
  <path fill="#56AAFF" d="M277.019 143.654c-17.762-3.242-33.508-13.37-43.783-28.161a67.633 67.633 0 0 1-10.553-24.265 67.508 67.508 0 0 1-.425-26.44 67.655 67.655 0 0 1 18.105-34.979 68.215 68.215 0 0 1 34.587-19.078 68.453 68.453 0 0 1 39.412 3.251 68.063 68.063 0 0 1 30.955 24.487 67.53 67.53 0 0 1 12.063 37.469 67.506 67.506 0 0 1-10.891 37.823 68.032 68.032 0 0 1-30.177 25.428 68.45 68.45 0 0 1-39.293 4.465Zm-45.802-77.212a58.344 58.344 0 0 0 4.676 35.461 58.738 58.738 0 0 0 24.517 26.159 59.181 59.181 0 0 0 35.23 7.119 59.074 59.074 0 0 0 32.832-14.571 58.555 58.555 0 0 0 18.211-30.836 58.333 58.333 0 0 0-3.188-35.624 58.7 58.7 0 0 0-23.4-27.152 59.164 59.164 0 0 0-34.902-8.572 59.221 59.221 0 0 0-35.252 14.815 58.69 58.69 0 0 0-18.724 33.201Z"/>
  <path fill="#56AAFF" d="M349.937 48.035c-4.688-15.482-31.988-32.503-31.988-32.503 11.053 2.703 23.244 8.2 29.17 9.425 3.325.683 23.49 2.734 23.49 2.734l.077 27.503s-5.542.307-6.927 3.913c-2.971 7.588-1.47 9.425-8.797 35.75-.069 0-.408-31.347-5.025-46.822Z"/>
  <path opacity=".1" d="M277.019 143.654c-17.762-3.242-33.508-13.37-43.783-28.161a67.633 67.633 0 0 1-10.553-24.265 67.508 67.508 0 0 1-.425-26.44 67.655 67.655 0 0 1 18.105-34.979 68.215 68.215 0 0 1 34.587-19.078 68.453 68.453 0 0 1 39.412 3.251 68.063 68.063 0 0 1 30.955 24.487 67.53 67.53 0 0 1 12.063 37.469 67.506 67.506 0 0 1-10.891 37.823 68.032 68.032 0 0 1-30.177 25.428 68.45 68.45 0 0 1-39.293 4.465Zm-45.802-77.212a58.344 58.344 0 0 0 4.676 35.461 58.738 58.738 0 0 0 24.517 26.159 59.181 59.181 0 0 0 35.23 7.119 59.074 59.074 0 0 0 32.832-14.571 58.555 58.555 0 0 0 18.211-30.836 58.333 58.333 0 0 0-3.188-35.624 58.7 58.7 0 0 0-23.4-27.152 59.164 59.164 0 0 0-34.902-8.572 59.221 59.221 0 0 0-35.252 14.815 58.69 58.69 0 0 0-18.724 33.201Z"/>
  <path opacity=".1" d="M349.937 48.035c-4.688-15.482-31.988-32.503-31.988-32.503 11.053 2.703 23.244 8.2 29.17 9.425 3.325.683 23.49 2.734 23.49 2.734l.077 27.503s-5.542.307-6.927 3.913c-2.971 7.588-1.47 9.425-8.797 35.75-.069 0-.408-31.347-5.025-46.822Z"/>
  <path fill="#56AAFF" d="M270.962 142.666c-17.748-3.242-33.482-13.36-43.755-28.135a67.551 67.551 0 0 1-11.006-50.661 67.676 67.676 0 0 1 18.078-35.031A68.245 68.245 0 0 1 268.876 9.71a68.482 68.482 0 0 1 39.448 3.226 68.098 68.098 0 0 1 30.994 24.493 67.562 67.562 0 0 1 12.084 37.498 67.551 67.551 0 0 1-10.902 37.854 68.068 68.068 0 0 1-30.21 25.444 68.48 68.48 0 0 1-39.328 4.449v-.008ZM225.16 65.493a58.39 58.39 0 0 0 4.66 35.495 58.78 58.78 0 0 0 24.528 26.192 59.222 59.222 0 0 0 35.258 7.133 59.138 59.138 0 0 0 32.865-14.58 58.59 58.59 0 0 0 18.225-30.866 58.365 58.365 0 0 0-3.198-35.655 58.744 58.744 0 0 0-23.431-27.167 59.206 59.206 0 0 0-34.939-8.56 59.217 59.217 0 0 0-35.244 14.813 58.68 58.68 0 0 0-18.724 33.195Z"/>
  <path fill="#56AAFF" d="M343.841 47.086c-4.688-15.482-31.987-32.503-31.987-32.503 11.052 2.702 23.243 8.2 29.17 9.425 3.324.682 23.49 2.733 23.49 2.733l.077 25.185s-5.542 1.668-6.927 5.266c-2.979 7.589-1.478 10.392-8.805 36.753-.024-.06-.332-31.384-5.018-46.86Z"/>
  <path fill="#A6A6A6" d="M355.877 38.05c-.184 1.356-2.716 2.137-5.656 1.746-2.94-.39-5.187-1.8-5.003-3.154.184-1.355 2.717-2.137 5.657-1.745 2.94.39 5.218 1.806 5.002 3.154Z"/>
  <path fill="#FFFFFF" d="M346.511 36.696c.239-.651 2.802-1.395 5.603-.636l-5.603.636Zm-94.452-17.183a33.209 33.209 0 0 1 20.319-6.73c-6.927 2.022-13.592 4.212-20.319 6.73Zm-28.824 33.79c3.449-13.698 14.963-26.913 27.639-33.077-11.868 8.422-21.82 19.724-27.639 33.077Z"/>
  <path fill="#516874" opacity=".1" d="M227.969 65.493c-5.695 31.83 15.07 62.456 46.303 68.269 31.232 5.811 61.264-15.368 66.959-47.19 5.696-31.822-15.077-62.465-46.31-68.268a56.049 56.049 0 0 0-14.254-.82c-25.652 1.8-47.88 21.095-52.698 48.01Z"/>
  <path fill="#FFFFFF" opacity=".2" d="m342.116 78.74-54.868 55.894c-4.346.2-8.701-.103-12.976-.903a54.402 54.402 0 0 1-5.489-1.31l71.147-72.502a58.944 58.944 0 0 1 2.186 18.82Zm-50.135-60.903-64.474 65.726a59.781 59.781 0 0 1 1.424-22.48l40.961-41.784a56.204 56.204 0 0 1 10.775-1.814 55.255 55.255 0 0 1 11.314.352Zm40.784 26.117-79.651 81.163a54.773 54.773 0 0 1-5.227-3.928l81.037-82.564a56.291 56.291 0 0 1 3.841 5.329Zm-24.921-21.623L231.94 99.666a58.49 58.49 0 0 1-2.447-6.754l71.724-73.108a57.252 57.252 0 0 1 6.627 2.527Zm33.533 63.43c-.038.267-.092.544-.139.811-.077.475-.169.95-.269 1.409l-44.64 45.512c-.716.153-1.446.292-2.185.413l47.233-48.145Zm-16.986-52.113-81.367 82.939a31.07 31.07 0 0 1-.855-.934l81.314-82.885.908.88Z"/>
</svg>