<svg xmlns="http://www.w3.org/2000/svg" width="100" height="100" viewBox="0 0 100 100">
  <path fill="#56AAFF" d="M98 27c1.5 1.5 2 3 2 5v11c0 2-.5 3.5-2 5s-3 2-5 2L83 94s-.5 2.5-2 4c-2 2-4 2-4 2H23s-2 0-4-2c-1.5-1.5-2-4-2-4L7 50c-2 0-3.5-.5-5-2s-2-3-2-5V32c0-2 .5-3.5 2-5s3-2 5-2h9L40 1c.5-.5 1.5-1 2.5-1 2 0 3.5 1.5 3.5 3.5 0 1-.5 2-1 2.5L26 25h48L55 6c-.5-.5-1-1.5-1-2.5 0-2 1.5-3.5 3.5-3.5 1 0 2 .5 2.5 1l24 24h9c2 0 3.5.5 5 2ZM32.5 50c-2 0-3.5 1.5-3.5 3.5v23c0 2 1.5 3.5 3.5 3.5s3.5-1.5 3.5-3.5v-23c0-2-1.5-3.5-3.5-3.5Zm14 3.5v23c0 2 1.5 3.5 3.5 3.5s3.5-1.5 3.5-3.5v-23c0-2-1.5-3.5-3.5-3.5s-3.5 1.5-3.5 3.5Zm21-3.5c-2 0-3.5 1.5-3.5 3.5v23c0 2 1.5 3.5 3.5 3.5s3.5-1.5 3.5-3.5v-23c0-2-1.5-3.5-3.5-3.5Z"/>
</svg>