<svg xmlns="http://www.w3.org/2000/svg" width="150" height="150" viewBox="0 0 100 100">
  <path fill="#0478ED" d="M97 82c0-10-8-18-18-18s-18 8-18 18 8 18 18 18 18-8 18-18Zm-7.5 7L73 71c1.5-1 3.5-1.5 6-1.5 7 0 12.5 5.5 12.5 12.5 0 2.5-.5 5-2 7Zm-21-14L85 93c-1.5 1-3.5 1.5-6 1.5-7 0-12.5-5.5-12.5-12.5 0-2.5.5-5 2-7ZM79 24c0 5-4 9-9 9s-9-4-9-9 4-9 9-9 9 4 9 9Z"/>
  <path fill="#56AAFF" d="M66 47c1-4 4-4 6-2l11.5 13.5C76 57 68.5 59 63 64l3-17Z"/>
  <path fill="#56AAFF" d="M10 0h76c4 0 7 3 7 7v55.5c-2-1.5-4.5-2.8-7-3.5V7H10v58l25-24c1.5-1.5 3.5-1.5 5 0l21 25c-6 6.5-7.5 15.5-4.5 24H10c-4 0-7-3-7-7V7c0-4 3-7 7-7Z"/>
</svg>