<svg xmlns="http://www.w3.org/2000/svg" width="800" height="250" viewBox="0 0 800 250">
  <path fill="#37474F" d="M86.082 215.547v-.754H1.294V11.908h84.14v203.639h1.295V11.154a.828.828 0 0 0-.19-.533.609.609 0 0 0-.457-.222H.647a.61.61 0 0 0-.457.222.825.825 0 0 0-.19.532v204.394c0 .2.069.393.19.533.12.142.287.222.457.222h85.435c.17 0 .336-.08.457-.222.12-.14.19-.333.19-.533h-.647Z"/>
  <path fill="#37474F" d="M86.082 215.547H.647V11.154h85.435v204.393Z"/>
  <path fill="#56AAFF" d="M30.883 181.877V71.768H13.869v-21.63h58.99v21.63H55.985v110.109H30.883Z"/>
  <path fill="#37474F" d="M179.244 237.969v-.754H94.456V34.331h84.141V237.97h1.294V33.577c0-.2-.07-.394-.19-.534a.61.61 0 0 0-.457-.22H93.809a.61.61 0 0 0-.458.22.828.828 0 0 0-.189.534v204.392c0 .199.069.394.19.534.12.141.286.221.457.221h85.435c.169 0 .336-.08.457-.221a.83.83 0 0 0 .19-.534h-.647Z"/>
  <path fill="#56AAFF" d="M179.244 237.969H93.809V33.577h85.435v204.392Z"/>
  <path fill="#37474F" d="M102.777 204.299V72.559h24.964v53.347h17.431V72.559h25.102v131.74h-25.102v-57.575h-17.431v57.575h-24.964Zm169.628.848v-.755h-84.787V1.509h84.14v203.638h1.294V.755a.83.83 0 0 0-.189-.535.609.609 0 0 0-.458-.22h-85.434a.607.607 0 0 0-.458.22.83.83 0 0 0-.189.535v204.392a.83.83 0 0 0 .189.534c.12.141.287.221.458.221h85.434c.171 0 .337-.08.458-.221a.83.83 0 0 0 .189-.534h-.647Z"/>
  <path fill="#FFFFFF" d="M272.405 205.147h-85.434V.755h85.434v204.392Z"/>
  <path fill="#37474F" d="M222.268 126.264h11.993l-5.997-51.396-5.996 51.396Zm-29.705 45.214L213.9 39.737h28.45l21.057 131.741h-23.01l-3.765-27.812h-16.596l-3.905 27.812h-23.568Zm173.005 55.173v-.754H280.78V23.013h84.141v203.638h1.294V22.259c0-.2-.07-.394-.19-.535a.606.606 0 0 0-.457-.22h-85.435a.606.606 0 0 0-.456.22.827.827 0 0 0-.191.535V226.65c0 .199.07.394.191.534.12.141.287.221.456.221h85.435c.17 0 .337-.08.457-.221a.83.83 0 0 0 .19-.534h-.647Z"/>
  <path fill="#37474F" d="M365.568 226.651h-85.435V22.259h85.435V226.65Z"/>
  <path fill="#FFFFFF" d="M292.171 192.981V61.241h17.571l23.15 63.43v-63.43h20.639v131.74h-16.874l-23.15-68.31v68.31h-21.336Z"/>
  <path fill="#37474F" d="m458.707 249.245.016-.754-84.766-2.258 3.968-202.829 84.119 2.238-3.984 203.585.647.018.647.017 3.998-204.34a.84.84 0 0 0-.178-.538.616.616 0 0 0-.454-.233l-85.412-2.274c-.357-.01-.653.321-.662.738l-3.997 204.339c-.009.417.274.761.631.772L458.693 250a.611.611 0 0 0 .462-.21.821.821 0 0 0 .199-.528l-.647-.017Z"/>
  <path fill="#56AAFF" d="m458.707 249.245-85.413-2.274 3.999-204.34 85.412 2.275-3.998 204.339Z"/>
  <path fill="#37474F" d="m382.014 213.526 2.576-131.707 24.957.664-1.053 53.821 20.013-53.317 24.4.65-22.079 58.955 20.477 72.778-25.374-.676-15.173-58.646-2.75 5.133-1.038 53.007-24.956-.662Zm231.016-8.379v-.754h-84.788V1.509h84.141v203.638h1.294V.755c0-.2-.068-.394-.189-.534a.607.607 0 0 0-.458-.22h-85.435c-.17 0-.336.08-.456.22a.822.822 0 0 0-.191.534v204.392a.82.82 0 0 0 .191.534c.12.141.286.221.456.221h85.435c.171 0 .338-.08.458-.221a.824.824 0 0 0 .189-.534h-.647Z"/>
  <path fill="#37474F" d="M613.03 205.147h-85.435V.755h85.435v204.392Z"/>
  <path fill="#56AAFF" d="M558.529 171.477v-53.833l-21.475-77.907h23.567l10.739 41.635 9.622-41.635h22.591l-21.057 77.907v53.833h-23.987Z"/>
  <path fill="#37474F" d="M706.192 226.651v-.754h-84.788V23.014h84.141V226.65h1.294V22.259c0-.2-.07-.394-.19-.534a.607.607 0 0 0-.457-.22h-85.435a.606.606 0 0 0-.456.22.827.827 0 0 0-.191.534V226.65c0 .2.07.394.191.535.12.14.287.22.456.22h85.435c.17 0 .337-.08.457-.22a.833.833 0 0 0 .19-.535h-.647Z"/>
  <path fill="#FFFFFF" d="M706.192 226.651h-85.435V22.259h85.435v204.392Z"/>
  <path fill="#37474F" d="M663.336 174.278c2.6 0 4.507-.758 5.718-2.277 1.206-1.517 1.998-3.468 2.37-5.856a47.5 47.5 0 0 0 .557-7.317V95.396c0-2.602-.186-5.068-.557-7.4-.372-2.33-1.164-4.255-2.37-5.774-1.211-1.517-3.118-2.277-5.718-2.277-2.419 0-4.232.76-5.438 2.277-1.211 1.52-2.001 3.443-2.372 5.775-.374 2.331-.559 4.797-.559 7.399v63.432c0 2.494.162 4.935.489 7.317.325 2.388 1.068 4.339 2.231 5.856 1.162 1.519 3.045 2.277 5.649 2.277Zm0 20.654c-8.462 0-15.155-1.735-20.083-5.203-4.927-3.469-8.461-8.458-10.598-14.962-2.14-6.507-3.208-14.257-3.208-23.258v-48.957c0-9.109 1.068-16.858 3.208-23.258 2.137-6.397 5.671-11.303 10.598-14.72 4.928-3.414 11.621-5.123 20.083-5.123 8.552 0 15.316 1.709 20.29 5.124 4.973 3.416 8.528 8.322 10.667 14.72 2.139 6.399 3.209 14.148 3.209 23.257v48.957c0 9.001-1.07 16.751-3.209 23.258-2.139 6.504-5.694 11.493-10.667 14.962-4.974 3.468-11.738 5.203-20.29 5.203Zm136.017 20.401v-.754h-84.786V11.696h84.139v203.637H800V10.941c0-.2-.069-.394-.189-.534a.607.607 0 0 0-.458-.22H713.92a.61.61 0 0 0-.459.22.83.83 0 0 0-.188.534v204.392c0 .2.068.394.188.535.121.14.288.22.459.22h85.433c.171 0 .338-.08.458-.22a.833.833 0 0 0 .189-.535h-.647Z"/>
  <path fill="#56AAFF" d="m799.353 215.333-85.433.001V10.941h85.433v204.392Z"/>
  <path fill="#37474F" d="M756.636 183.614c-8.645 0-15.41-1.654-20.29-4.958-4.882-3.308-8.297-8.133-10.251-14.477-1.952-6.342-2.928-14.12-2.928-23.338V49.923h24.683v95.308c0 2.714.185 5.424.558 8.133.371 2.711 1.185 4.936 2.441 6.667 1.254 1.737 3.185 2.604 5.787 2.604 2.695 0 4.649-.867 5.857-2.604 1.206-1.731 1.975-3.956 2.301-6.667.325-2.709.489-5.419.489-8.133V49.923h24.824v90.918c0 9.218-1.002 16.996-3.001 23.338-1.999 6.344-5.415 11.169-10.249 14.477-4.835 3.304-11.574 4.958-20.221 4.958Z"/>
</svg>